<?xml version="1.0" ?><svg viewBox="0 0 512 512" xmlns="http://www.w3.org/2000/svg"><g id="Sray"><path d="M395.96,114.9374,373.3116,68.9061a4.4993,4.4993,0,0,0-4.0376-2.5136H243.5048a4.2875,4.2875,0,0,0-1.942,0H206.4561a4.5,4.5,0,0,0-4.5,4.5v46.0312a4.5,4.5,0,0,0,4.5,4.5h30.6975a55.7522,55.7522,0,0,1-16.7067,30.8477,4.5,4.5,0,1,0,6.15,6.57,64.8046,64.8046,0,0,0,19.6906-37.418h9.7572c14.7144,0,27.3218,18.7578,27.3218,34.1143a4.5,4.5,0,0,0,4.5,4.5h52.87a4.5,4.5,0,0,0,4.5-4.5c0-15.3565,12.6074-34.1143,27.3218-34.1143h19.3637a4.5,4.5,0,0,0,4.0376-6.4863Zm-149.9262-7.169a4.5,4.5,0,1,1-9,0V79.6512a4.5,4.5,0,1,1,9,0Z"/><path d="M180.5533,75.1512H163.8121a57.9823,57.9823,0,0,1-40.6-16.4687,4.5,4.5,0,1,0-6.27,6.457,66.9365,66.9365,0,0,0,46.8692,19.0117h16.7412a4.5,4.5,0,0,0,0-9Z"/><path d="M180.5533,100.3622H163.8121a66.9323,66.9323,0,0,0-46.8692,19.0117,4.5,4.5,0,0,0,6.27,6.457,57.979,57.979,0,0,1,40.6-16.4687h16.7412a4.5,4.5,0,0,0,0-9Z"/><rect height="43.1563" width="16.5557" x="318.8018" y="171.4139"/><rect height="43.1563" width="16.5557" x="293.2462" y="171.4139"/><path d="M363.6231,218.0985l-4.2058-3.953a4.4911,4.4911,0,0,0,2.6174-4.0753V175.9139a4.5,4.5,0,0,0-4.5-4.5H344.3575V214.57h2.37l10.732,10.0869c15.9585,14.999,25.1108,37.1455,25.1108,60.7607v40.4729c-7.8218-.8068-12.2672-3.7216-17.28-7.0285-6.2134-4.0977-13.2554-8.7432-26.7344-8.7432a41.0516,41.0516,0,0,0-19.7539,4.5152V214.57h-9V320.182c-5.1346,3.3038-10.2246,5.937-19.76,5.937-10.7764,0-15.8736-3.3623-21.7759-7.2558-5.4805-3.6155-11.6129-7.6518-22.2319-8.5542V286.4276c0-24.2226,9.5385-46.7246,26.1694-61.7353L283.4173,214.57h.8289V171.4139H271.0689a4.5,4.5,0,0,0-4.5,4.5V210.07a4.4978,4.4978,0,0,0,3.5364,4.391l-3.9324,3.5494c-18.5185,16.7149-29.1391,41.6524-29.1391,68.417v132.61c0,19.6025,14.2846,35.5507,31.8427,35.5507h90.8511c17.5581,0,31.8423-15.9482,31.8423-35.5507v-133.62C391.57,259.329,381.3839,234.7919,363.6231,218.0985Zm-3.8955,227.49H268.8765c-12.5957,0-22.8427-11.9111-22.8427-26.5507V319.3473c7.82.807,12.2643,3.7217,17.2758,7.0276,6.2129,4.0986,13.2544,8.7441,26.732,8.7441a41.0449,41.0449,0,0,0,19.76-4.5187v73.7746a4.5,4.5,0,0,0,9,0V325.0514c5.1326-3.3018,10.2223-5.9324,19.7539-5.9324,10.7779,0,15.876,3.3623,21.7793,7.2569,5.4811,3.6147,11.6143,7.6507,22.2349,8.5532V419.038C382.57,433.6776,372.3228,445.5887,359.7276,445.5887Z"/></g></svg>