<svg viewBox="0 0 100 100" xml:space="preserve" xmlns="http://www.w3.org/2000/svg"><path d="M5 59.139V46.926c0-1.119.919-2.034 2.045-2.034h21.581L19.23 61.175H7.045A2.044 2.044 0 0 1 5 59.139m15.373 25.007-6.887 4.666c-.927.631-1.582.231-1.454-.881l.919-7.983c.128-1.112 1.03-1.566 2.005-1.011l5.33 3.045c.974.559 1.014 1.538.087 2.164m1.654-4.5-5.33-3.045a2.026 2.026 0 0 1-.751-2.775L40.627 31.04a2.054 2.054 0 0 1 2.796-.749l5.33 3.038a2.041 2.041 0 0 1 .751 2.782L24.823 78.898c-.559.971-1.822 1.304-2.796.748m18.784-18.471 9.396-16.283h5.41l7.63 16.283H40.811zm30.602 4.86c-2.134-1.066-12.761-25.478-15.483-31.847-2.726-6.369-10.956-23.322-8.293-24.642 1.894-.946 8.693 12.404 13.79 20.419C66.516 37.98 77.159 58.646 78.469 61c1.303 2.359-1.254 4.327-2.676 4.915-1.423.589-2.247 1.176-4.38.12m6.983 11.219-3.211-5.05c-.664-1.05-.319-2.347.758-2.901l3.061-1.566c1.079-.549 2.43-.104 3.004.994l2.533 4.851c.576 1.097.184 2.505-.855 3.125l-2.188 1.303c-1.04.627-2.437.285-3.102-.756M90.214 90.5c-.671-2.139-5.793-2.281-8.086-5.503-2.301-3.211-.399-4.865.399-5.629 9.301-5.216 7.687 11.132 7.687 11.132M95 59.139a2.044 2.044 0 0 1-2.045 2.036H82.152c-.119-.628-.312-1.256-.639-1.845-.281-.501-.992-1.852-1.982-3.736-1.43-2.719-3.483-6.607-5.682-10.702h19.104c1.126 0 2.045.915 2.045 2.034L95 59.139z" fill="#819e7b" class="fill-000000"></path></svg>